<?xml version="1.0" encoding="utf-8"?>
<!-- Generator: Adobe Illustrator 18.1.1, SVG Export Plug-In . SVG Version: 6.00 Build 0)  -->
<!DOCTYPE svg PUBLIC "-//W3C//DTD SVG 1.1//EN" "http://www.w3.org/Graphics/SVG/1.1/DTD/svg11.dtd">
<svg version="1.1" id="Layer_1" xmlns="http://www.w3.org/2000/svg" xmlns:xlink="http://www.w3.org/1999/xlink" x="0px" y="0px"
	 viewBox="0 0 612 792" enable-background="new 0 0 612 792" xml:space="preserve">
<path fill="none" stroke="#000000" stroke-miterlimit="10" d="M304.6,334c2.1-3.4,3.9-6.6,5.9-9.6c10.4-15.2,24.1-26.3,41.8-32.1
	c12.8-4.2,25.7-4.6,38.7-0.5c13.2,4.3,23.2,12.6,30.6,24.2c5.8,9.1,9.2,19.1,11,29.7c3.6,20.9-0.5,40.7-9.4,59.7
	c-7.4,15.9-17.5,29.9-29.2,42.8c-17.6,19.3-37.8,35.4-60.5,48.3c-5.7,3.3-11.7,5.9-18,7.7c-10,2.8-19.9,2.3-29.6-1.4
	c-7.1-2.7-13.7-6.5-20.1-10.7c-18.9-12.5-36.6-26.3-52-43c-9.9-10.7-18.5-22.3-24.3-35.7c-5.1-11.7-8.5-23.9-10.4-36.5
	c-1.4-9.1-1.8-18.3-1.3-27.5c0.6-11.4,2.9-22.5,8-32.9c8.1-16.6,21.4-26.5,39.5-29.9c14.1-2.7,27.3-0.2,39.8,6.6
	c11.5,6.3,20.9,15,28.9,25.2c3.3,4.3,6.2,8.9,9.3,13.4C303.7,332.5,304.1,333.2,304.6,334z"/>
</svg>
